<mxfile host="" modified="2020-07-24T07:32:36.788Z" agent="5.0 (Macintosh; Intel Mac OS X 10_15_4) AppleWebKit/537.36 (KHTML, like Gecko) Code/1.46.1 Chrome/78.0.3904.130 Electron/7.3.1 Safari/537.36" etag="KcfxBU7AxXBqobqvXN3-" version="13.1.3">
    <diagram id="6hGFLwfOUW9BJ-s0fimq" name="Page-1">
        <mxGraphModel dx="1185" dy="785" grid="1" gridSize="10" guides="1" tooltips="1" connect="1" arrows="1" fold="1" page="1" pageScale="1" pageWidth="827" pageHeight="1169" math="0" shadow="0">
            <root>
                <mxCell id="0"/>
                <mxCell id="1" parent="0"/>
                <mxCell id="2" value="&lt;div style=&quot;background-color: rgb(40 , 44 , 52) ; font-family: &amp;#34;monaco&amp;#34; , &amp;#34;menlo&amp;#34; , &amp;#34;monaco&amp;#34; , &amp;#34;courier new&amp;#34; , monospace ; font-weight: normal ; font-size: 13px ; line-height: 20px&quot;&gt;&lt;div style=&quot;color: rgb(171 , 178 , 191)&quot;&gt;&lt;span style=&quot;color: #c678dd&quot;&gt;static&lt;/span&gt;&lt;span style=&quot;color: #abb2bf&quot;&gt; &lt;/span&gt;&lt;span style=&quot;color: #c678dd&quot;&gt;int&lt;/span&gt;&lt;span style=&quot;color: #abb2bf&quot;&gt; __init &lt;/span&gt;&lt;span style=&quot;color: #61afef&quot;&gt;vlan_proto_init&lt;/span&gt;&lt;span style=&quot;color: #abb2bf&quot;&gt;(&lt;/span&gt;&lt;span style=&quot;color: #c678dd&quot;&gt;void&lt;/span&gt;&lt;span style=&quot;color: #abb2bf&quot;&gt;)&lt;/span&gt;&lt;/div&gt;&lt;div style=&quot;color: rgb(171 , 178 , 191)&quot;&gt;&lt;span style=&quot;color: #abb2bf&quot;&gt;{&lt;/span&gt;&lt;/div&gt;&lt;div style=&quot;color: rgb(171 , 178 , 191)&quot;&gt;&lt;span style=&quot;color: #abb2bf&quot;&gt;&amp;nbsp; &amp;nbsp; err &lt;/span&gt;&lt;span style=&quot;color: #c678dd&quot;&gt;=&lt;/span&gt;&lt;span style=&quot;color: #abb2bf&quot;&gt; &lt;/span&gt;&lt;span style=&quot;color: #61afef&quot;&gt;register_pernet_subsys&lt;/span&gt;&lt;span style=&quot;color: #abb2bf&quot;&gt;(&lt;/span&gt;&lt;span style=&quot;color: #c678dd&quot;&gt;&amp;amp;&lt;/span&gt;&lt;span style=&quot;color: #abb2bf&quot;&gt;vlan_net_ops);&lt;/span&gt;&lt;/div&gt;&lt;div style=&quot;color: rgb(171 , 178 , 191)&quot;&gt;&lt;span style=&quot;color: #abb2bf&quot;&gt;&amp;nbsp; &amp;nbsp; err &lt;/span&gt;&lt;span style=&quot;color: #c678dd&quot;&gt;=&lt;/span&gt;&lt;span style=&quot;color: #abb2bf&quot;&gt; &lt;/span&gt;&lt;span style=&quot;color: #61afef&quot;&gt;register_netdevice_notifier_rh&lt;/span&gt;&lt;span style=&quot;color: #abb2bf&quot;&gt;(&lt;/span&gt;&lt;span style=&quot;color: #c678dd&quot;&gt;&amp;amp;&lt;/span&gt;&lt;span style=&quot;color: #abb2bf&quot;&gt;vlan_notifier_block);&lt;/span&gt;&lt;/div&gt;&lt;div style=&quot;color: rgb(171 , 178 , 191)&quot;&gt;&lt;span style=&quot;color: #abb2bf&quot;&gt;&amp;nbsp; &amp;nbsp; err &lt;/span&gt;&lt;span style=&quot;color: #c678dd&quot;&gt;=&lt;/span&gt;&lt;span style=&quot;color: #abb2bf&quot;&gt; &lt;/span&gt;&lt;span style=&quot;color: #61afef&quot;&gt;vlan_gvrp_init&lt;/span&gt;&lt;span style=&quot;color: #abb2bf&quot;&gt;();&lt;/span&gt;&lt;/div&gt;&lt;div&gt;&lt;font color=&quot;#c678dd&quot;&gt;&amp;nbsp; &amp;nbsp;&amp;nbsp;&lt;/font&gt;&lt;font color=&quot;#abb2bf&quot;&gt;err &lt;/font&gt;&lt;span style=&quot;color: rgb(198 , 120 , 221)&quot;&gt;=&lt;/span&gt; &lt;span style=&quot;color: rgb(97 , 175 , 239)&quot;&gt;vlan_mvrp_init&lt;/span&gt;&lt;font color=&quot;#abb2bf&quot;&gt;();&lt;/font&gt;&lt;br&gt;&lt;/div&gt;&lt;div style=&quot;color: rgb(171 , 178 , 191)&quot;&gt;&amp;nbsp; &amp;nbsp; err &lt;span style=&quot;color: rgb(198 , 120 , 221)&quot;&gt;=&lt;/span&gt; &lt;span style=&quot;color: rgb(97 , 175 , 239)&quot;&gt;vlan_netlink_init&lt;/span&gt;();&lt;/div&gt;&lt;div style=&quot;color: rgb(171 , 178 , 191)&quot;&gt;&lt;span style=&quot;color: #abb2bf&quot;&gt;&lt;/span&gt;&lt;span style=&quot;color: #c678dd&quot;&gt;&amp;nbsp; &amp;nbsp; for&lt;/span&gt;&lt;span style=&quot;color: #abb2bf&quot;&gt; (i &lt;/span&gt;&lt;span style=&quot;color: #c678dd&quot;&gt;=&lt;/span&gt;&lt;span style=&quot;color: #abb2bf&quot;&gt; &lt;/span&gt;&lt;span style=&quot;color: #d19a66&quot;&gt;0&lt;/span&gt;&lt;span style=&quot;color: #abb2bf&quot;&gt;; i &lt;/span&gt;&lt;span style=&quot;color: #c678dd&quot;&gt;&amp;lt;&lt;/span&gt;&lt;span style=&quot;color: #abb2bf&quot;&gt; &lt;/span&gt;&lt;span style=&quot;color: #61afef&quot;&gt;ARRAY_SIZE&lt;/span&gt;&lt;span style=&quot;color: #abb2bf&quot;&gt;(vlan_packet_offloads); i&lt;/span&gt;&lt;span style=&quot;color: #c678dd&quot;&gt;++&lt;/span&gt;&lt;span style=&quot;color: #abb2bf&quot;&gt;)&lt;/span&gt;&lt;/div&gt;&lt;div style=&quot;color: rgb(171 , 178 , 191)&quot;&gt;&lt;span style=&quot;color: #abb2bf&quot;&gt;&lt;/span&gt;&lt;span style=&quot;color: #61afef&quot;&gt;&amp;nbsp; &amp;nbsp; &amp;nbsp; &amp;nbsp; dev_add_offload&lt;/span&gt;&lt;span style=&quot;color: #abb2bf&quot;&gt;(&lt;/span&gt;&lt;span style=&quot;color: #c678dd&quot;&gt;&amp;amp;&lt;/span&gt;&lt;span style=&quot;color: #e06c75&quot;&gt;vlan_packet_offloads&lt;/span&gt;&lt;span style=&quot;color: #abb2bf&quot;&gt;[i]);&lt;/span&gt;&lt;/div&gt;&lt;br&gt;&lt;div style=&quot;color: rgb(171 , 178 , 191)&quot;&gt;&lt;span style=&quot;color: #abb2bf&quot;&gt;&lt;/span&gt;&lt;span style=&quot;color: #61afef&quot;&gt;&amp;nbsp; &amp;nbsp; vlan_ioctl_set&lt;/span&gt;&lt;span style=&quot;color: #abb2bf&quot;&gt;(vlan_ioctl_handler);&lt;/span&gt;&lt;/div&gt;&lt;div style=&quot;color: rgb(171 , 178 , 191)&quot;&gt;&lt;span style=&quot;color: #abb2bf&quot;&gt;}&lt;/span&gt;&lt;/div&gt;&lt;/div&gt;" style="text;whiteSpace=wrap;html=1;" vertex="1" parent="1">
                    <mxGeometry x="120" y="175" width="500" height="250" as="geometry"/>
                </mxCell>
                <mxCell id="3" value="&lt;div style=&quot;color: rgb(171 , 178 , 191) ; background-color: rgb(40 , 44 , 52) ; font-family: &amp;#34;monaco&amp;#34; , &amp;#34;menlo&amp;#34; , &amp;#34;monaco&amp;#34; , &amp;#34;courier new&amp;#34; , monospace ; font-weight: normal ; font-size: 13px ; line-height: 20px&quot;&gt;&lt;div&gt;&lt;span style=&quot;color: #c678dd&quot;&gt;static&lt;/span&gt;&lt;span style=&quot;color: #abb2bf&quot;&gt; &lt;/span&gt;&lt;span style=&quot;color: #c678dd&quot;&gt;struct&lt;/span&gt;&lt;span style=&quot;color: #abb2bf&quot;&gt; pernet_operations vlan_net_ops &lt;/span&gt;&lt;span style=&quot;color: #c678dd&quot;&gt;=&lt;/span&gt;&lt;span style=&quot;color: #abb2bf&quot;&gt; {&lt;/span&gt;&lt;/div&gt;&lt;div&gt;&lt;span style=&quot;color: #abb2bf&quot;&gt;&amp;nbsp; &amp;nbsp; .init &lt;/span&gt;&lt;span style=&quot;color: #c678dd&quot;&gt;=&lt;/span&gt;&lt;span style=&quot;color: #abb2bf&quot;&gt; vlan_init_net,&lt;/span&gt;&lt;/div&gt;&lt;div&gt;&lt;span style=&quot;color: #abb2bf&quot;&gt;&amp;nbsp; &amp;nbsp; .exit &lt;/span&gt;&lt;span style=&quot;color: #c678dd&quot;&gt;=&lt;/span&gt;&lt;span style=&quot;color: #abb2bf&quot;&gt; vlan_exit_net,&lt;/span&gt;&lt;/div&gt;&lt;div&gt;&lt;span style=&quot;color: #abb2bf&quot;&gt;&amp;nbsp; &amp;nbsp; .id   &lt;/span&gt;&lt;span style=&quot;color: #c678dd&quot;&gt;=&lt;/span&gt;&lt;span style=&quot;color: #abb2bf&quot;&gt; &lt;/span&gt;&lt;span style=&quot;color: #c678dd&quot;&gt;&amp;amp;&lt;/span&gt;&lt;span style=&quot;color: #abb2bf&quot;&gt;vlan_net_id,&lt;/span&gt;&lt;/div&gt;&lt;div&gt;&lt;span style=&quot;color: #abb2bf&quot;&gt;&amp;nbsp; &amp;nbsp; .size &lt;/span&gt;&lt;span style=&quot;color: #c678dd&quot;&gt;=&lt;/span&gt;&lt;span style=&quot;color: #abb2bf&quot;&gt; &lt;/span&gt;&lt;span style=&quot;color: #c678dd&quot;&gt;sizeof&lt;/span&gt;&lt;span style=&quot;color: #abb2bf&quot;&gt;(&lt;/span&gt;&lt;span style=&quot;color: #c678dd&quot;&gt;struct&lt;/span&gt;&lt;span style=&quot;color: #abb2bf&quot;&gt; vlan_net),&lt;/span&gt;&lt;/div&gt;&lt;div&gt;&lt;span style=&quot;color: #abb2bf&quot;&gt;};&lt;/span&gt;&lt;/div&gt;&lt;/div&gt;" style="text;whiteSpace=wrap;html=1;" vertex="1" parent="1">
                    <mxGeometry x="780" y="230" width="400" height="140" as="geometry"/>
                </mxCell>
                <mxCell id="4" value="&lt;div style=&quot;color: rgb(171 , 178 , 191) ; background-color: rgb(40 , 44 , 52) ; font-family: &amp;#34;monaco&amp;#34; , &amp;#34;menlo&amp;#34; , &amp;#34;monaco&amp;#34; , &amp;#34;courier new&amp;#34; , monospace ; font-weight: normal ; font-size: 13px ; line-height: 20px&quot;&gt;&lt;div&gt;&lt;span style=&quot;color: #c678dd&quot;&gt;struct&lt;/span&gt;&lt;span style=&quot;color: #abb2bf&quot;&gt; &lt;/span&gt;&lt;span style=&quot;color: #e5c07b&quot;&gt;pernet_operations&lt;/span&gt;&lt;span style=&quot;color: #abb2bf&quot;&gt; {&lt;/span&gt;&lt;/div&gt;&lt;div&gt;&lt;span style=&quot;color: #abb2bf&quot;&gt;&lt;/span&gt;&lt;span style=&quot;color: #c678dd&quot;&gt;&amp;nbsp; &amp;nbsp; struct&lt;/span&gt;&lt;span style=&quot;color: #abb2bf&quot;&gt; &lt;/span&gt;&lt;span style=&quot;color: #e5c07b&quot;&gt;list_head&lt;/span&gt;&lt;span style=&quot;color: #abb2bf&quot;&gt; &lt;/span&gt;&lt;span style=&quot;color: #e06c75&quot;&gt;list&lt;/span&gt;&lt;span style=&quot;color: #abb2bf&quot;&gt;;&lt;/span&gt;&lt;/div&gt;&lt;div&gt;&lt;span style=&quot;color: #abb2bf&quot;&gt;&lt;/span&gt;&lt;span style=&quot;color: #c678dd&quot;&gt;&amp;nbsp; &amp;nbsp; int&lt;/span&gt;&lt;span style=&quot;color: #abb2bf&quot;&gt; (*&lt;/span&gt;&lt;span style=&quot;color: #e06c75&quot;&gt;init&lt;/span&gt;&lt;span style=&quot;color: #abb2bf&quot;&gt;)(&lt;/span&gt;&lt;span style=&quot;color: #c678dd&quot;&gt;struct&lt;/span&gt;&lt;span style=&quot;color: #abb2bf&quot;&gt; &lt;/span&gt;&lt;span style=&quot;color: #e5c07b&quot;&gt;net&lt;/span&gt;&lt;span style=&quot;color: #abb2bf&quot;&gt; &lt;/span&gt;&lt;span style=&quot;color: #c678dd&quot;&gt;*&lt;/span&gt;&lt;span style=&quot;color: #e06c75 ; font-style: italic&quot;&gt;net&lt;/span&gt;&lt;span style=&quot;color: #abb2bf&quot;&gt;);&lt;/span&gt;&lt;/div&gt;&lt;div&gt;&lt;span style=&quot;color: #abb2bf&quot;&gt;&lt;/span&gt;&lt;span style=&quot;color: #c678dd&quot;&gt;&amp;nbsp; &amp;nbsp; void&lt;/span&gt;&lt;span style=&quot;color: #abb2bf&quot;&gt; (*&lt;/span&gt;&lt;span style=&quot;color: #e06c75&quot;&gt;exit&lt;/span&gt;&lt;span style=&quot;color: #abb2bf&quot;&gt;)(&lt;/span&gt;&lt;span style=&quot;color: #c678dd&quot;&gt;struct&lt;/span&gt;&lt;span style=&quot;color: #abb2bf&quot;&gt; &lt;/span&gt;&lt;span style=&quot;color: #e5c07b&quot;&gt;net&lt;/span&gt;&lt;span style=&quot;color: #abb2bf&quot;&gt; &lt;/span&gt;&lt;span style=&quot;color: #c678dd&quot;&gt;*&lt;/span&gt;&lt;span style=&quot;color: #e06c75 ; font-style: italic&quot;&gt;net&lt;/span&gt;&lt;span style=&quot;color: #abb2bf&quot;&gt;);&lt;/span&gt;&lt;/div&gt;&lt;div&gt;&lt;span style=&quot;color: #abb2bf&quot;&gt;&lt;/span&gt;&lt;span style=&quot;color: #c678dd&quot;&gt;&amp;nbsp; &amp;nbsp; void&lt;/span&gt;&lt;span style=&quot;color: #abb2bf&quot;&gt; (*&lt;/span&gt;&lt;span style=&quot;color: #e06c75&quot;&gt;exit_batch&lt;/span&gt;&lt;span style=&quot;color: #abb2bf&quot;&gt;)(&lt;/span&gt;&lt;span style=&quot;color: #c678dd&quot;&gt;struct&lt;/span&gt;&lt;span style=&quot;color: #abb2bf&quot;&gt; &lt;/span&gt;&lt;span style=&quot;color: #e5c07b&quot;&gt;list_head&lt;/span&gt;&lt;span style=&quot;color: #abb2bf&quot;&gt; &lt;/span&gt;&lt;span style=&quot;color: #c678dd&quot;&gt;*&lt;/span&gt;&lt;span style=&quot;color: #e06c75 ; font-style: italic&quot;&gt;net_exit_list&lt;/span&gt;&lt;span style=&quot;color: #abb2bf&quot;&gt;);&lt;/span&gt;&lt;/div&gt;&lt;div&gt;&lt;span style=&quot;color: #abb2bf&quot;&gt;&lt;/span&gt;&lt;span style=&quot;color: #c678dd&quot;&gt;&amp;nbsp; &amp;nbsp; int&lt;/span&gt;&lt;span style=&quot;color: #abb2bf&quot;&gt; &lt;/span&gt;&lt;span style=&quot;color: #c678dd&quot;&gt;*&lt;/span&gt;&lt;span style=&quot;color: #abb2bf&quot;&gt;id;&lt;/span&gt;&lt;/div&gt;&lt;div&gt;&lt;span style=&quot;color: #abb2bf&quot;&gt;&lt;/span&gt;&lt;span style=&quot;color: #c678dd&quot;&gt;&amp;nbsp; &amp;nbsp; size_t&lt;/span&gt;&lt;span style=&quot;color: #abb2bf&quot;&gt; size;&lt;/span&gt;&lt;/div&gt;&lt;div&gt;&lt;span style=&quot;color: #abb2bf&quot;&gt;};&lt;/span&gt;&lt;/div&gt;&lt;/div&gt;" style="text;whiteSpace=wrap;html=1;" vertex="1" parent="1">
                    <mxGeometry x="760" y="10" width="440" height="170" as="geometry"/>
                </mxCell>
                <mxCell id="5" value="" style="endArrow=block;dashed=1;endFill=0;endSize=12;html=1;exitX=0.5;exitY=0;exitDx=0;exitDy=0;entryX=0.5;entryY=1;entryDx=0;entryDy=0;" edge="1" parent="1" source="3" target="4">
                    <mxGeometry width="160" relative="1" as="geometry">
                        <mxPoint x="860" y="210" as="sourcePoint"/>
                        <mxPoint x="1020" y="210" as="targetPoint"/>
                    </mxGeometry>
                </mxCell>
                <mxCell id="6" value="" style="endArrow=open;endFill=1;endSize=12;html=1;entryX=0;entryY=0.5;entryDx=0;entryDy=0;exitX=1;exitY=0.5;exitDx=0;exitDy=0;" edge="1" parent="1" source="2" target="3">
                    <mxGeometry width="160" relative="1" as="geometry">
                        <mxPoint x="380" y="210" as="sourcePoint"/>
                        <mxPoint x="540" y="210" as="targetPoint"/>
                    </mxGeometry>
                </mxCell>
                <mxCell id="7" value="&lt;div style=&quot;color: rgb(171 , 178 , 191) ; background-color: rgb(40 , 44 , 52) ; font-family: &amp;#34;monaco&amp;#34; , &amp;#34;menlo&amp;#34; , &amp;#34;monaco&amp;#34; , &amp;#34;courier new&amp;#34; , monospace ; font-weight: normal ; font-size: 13px ; line-height: 20px&quot;&gt;&lt;br&gt;&lt;div&gt;&lt;span style=&quot;color: #c678dd&quot;&gt;struct&lt;/span&gt;&lt;span style=&quot;color: #abb2bf&quot;&gt; rtnl_link_ops vlan_link_ops __read_mostly &lt;/span&gt;&lt;span style=&quot;color: #c678dd&quot;&gt;=&lt;/span&gt;&lt;span style=&quot;color: #abb2bf&quot;&gt; {&lt;/span&gt;&lt;/div&gt;&lt;div&gt;&lt;span style=&quot;color: #abb2bf&quot;&gt;&amp;nbsp; &amp;nbsp; .kind       &lt;/span&gt;&lt;span style=&quot;color: #c678dd&quot;&gt;=&lt;/span&gt;&lt;span style=&quot;color: #abb2bf&quot;&gt; &lt;/span&gt;&lt;span style=&quot;color: #98c379&quot;&gt;&quot;vlan&quot;&lt;/span&gt;&lt;span style=&quot;color: #abb2bf&quot;&gt;,&lt;/span&gt;&lt;/div&gt;&lt;div&gt;&lt;span style=&quot;color: #abb2bf&quot;&gt;&amp;nbsp; &amp;nbsp; .maxtype    &lt;/span&gt;&lt;span style=&quot;color: #c678dd&quot;&gt;=&lt;/span&gt;&lt;span style=&quot;color: #abb2bf&quot;&gt; IFLA_VLAN_MAX,&lt;/span&gt;&lt;/div&gt;&lt;div&gt;&lt;span style=&quot;color: #abb2bf&quot;&gt;&amp;nbsp; &amp;nbsp; .policy     &lt;/span&gt;&lt;span style=&quot;color: #c678dd&quot;&gt;=&lt;/span&gt;&lt;span style=&quot;color: #abb2bf&quot;&gt; vlan_policy,&lt;/span&gt;&lt;/div&gt;&lt;div&gt;&lt;span style=&quot;color: #abb2bf&quot;&gt;&amp;nbsp; &amp;nbsp; .priv_size  &lt;/span&gt;&lt;span style=&quot;color: #c678dd&quot;&gt;=&lt;/span&gt;&lt;span style=&quot;color: #abb2bf&quot;&gt; &lt;/span&gt;&lt;span style=&quot;color: #c678dd&quot;&gt;sizeof&lt;/span&gt;&lt;span style=&quot;color: #abb2bf&quot;&gt;(&lt;/span&gt;&lt;span style=&quot;color: #c678dd&quot;&gt;struct&lt;/span&gt;&lt;span style=&quot;color: #abb2bf&quot;&gt; vlan_dev_priv),&lt;/span&gt;&lt;/div&gt;&lt;div&gt;&lt;span style=&quot;color: #abb2bf&quot;&gt;&amp;nbsp; &amp;nbsp; .setup      &lt;/span&gt;&lt;span style=&quot;color: #c678dd&quot;&gt;=&lt;/span&gt;&lt;span style=&quot;color: #abb2bf&quot;&gt; vlan_setup,&lt;/span&gt;&lt;/div&gt;&lt;div&gt;&lt;span style=&quot;color: #abb2bf&quot;&gt;&amp;nbsp; &amp;nbsp; .validate   &lt;/span&gt;&lt;span style=&quot;color: #c678dd&quot;&gt;=&lt;/span&gt;&lt;span style=&quot;color: #abb2bf&quot;&gt; vlan_validate,&lt;/span&gt;&lt;/div&gt;&lt;div&gt;&lt;span style=&quot;color: #abb2bf&quot;&gt;&amp;nbsp; &amp;nbsp; .newlink    &lt;/span&gt;&lt;span style=&quot;color: #c678dd&quot;&gt;=&lt;/span&gt;&lt;span style=&quot;color: #abb2bf&quot;&gt; vlan_newlink,&lt;/span&gt;&lt;/div&gt;&lt;div&gt;&lt;span style=&quot;color: #abb2bf&quot;&gt;&amp;nbsp; &amp;nbsp; .changelink &lt;/span&gt;&lt;span style=&quot;color: #c678dd&quot;&gt;=&lt;/span&gt;&lt;span style=&quot;color: #abb2bf&quot;&gt; vlan_changelink,&lt;/span&gt;&lt;/div&gt;&lt;div&gt;&lt;span style=&quot;color: #abb2bf&quot;&gt;&amp;nbsp; &amp;nbsp; .dellink    &lt;/span&gt;&lt;span style=&quot;color: #c678dd&quot;&gt;=&lt;/span&gt;&lt;span style=&quot;color: #abb2bf&quot;&gt; unregister_vlan_dev,&lt;/span&gt;&lt;/div&gt;&lt;div&gt;&lt;span style=&quot;color: #abb2bf&quot;&gt;&amp;nbsp; &amp;nbsp; .get_size   &lt;/span&gt;&lt;span style=&quot;color: #c678dd&quot;&gt;=&lt;/span&gt;&lt;span style=&quot;color: #abb2bf&quot;&gt; vlan_get_size,&lt;/span&gt;&lt;/div&gt;&lt;div&gt;&lt;span style=&quot;color: #abb2bf&quot;&gt;&amp;nbsp; &amp;nbsp; .fill_info  &lt;/span&gt;&lt;span style=&quot;color: #c678dd&quot;&gt;=&lt;/span&gt;&lt;span style=&quot;color: #abb2bf&quot;&gt; vlan_fill_info,&lt;/span&gt;&lt;/div&gt;&lt;div&gt;&lt;span style=&quot;color: #abb2bf&quot;&gt;&amp;nbsp; &amp;nbsp; .get_link_net   &lt;/span&gt;&lt;span style=&quot;color: #c678dd&quot;&gt;=&lt;/span&gt;&lt;span style=&quot;color: #abb2bf&quot;&gt; vlan_get_link_net,&lt;/span&gt;&lt;/div&gt;&lt;div&gt;&lt;span style=&quot;color: #abb2bf&quot;&gt;};&lt;/span&gt;&lt;/div&gt;&lt;/div&gt;" style="text;whiteSpace=wrap;html=1;" vertex="1" parent="1">
                    <mxGeometry x="780" y="570" width="430" height="320" as="geometry"/>
                </mxCell>
                <mxCell id="8" value="" style="endArrow=open;endFill=1;endSize=12;html=1;entryX=0;entryY=0.5;entryDx=0;entryDy=0;exitX=1;exitY=0.5;exitDx=0;exitDy=0;" edge="1" parent="1" source="2" target="7">
                    <mxGeometry width="160" relative="1" as="geometry">
                        <mxPoint x="630" y="310" as="sourcePoint"/>
                        <mxPoint x="790" y="310" as="targetPoint"/>
                    </mxGeometry>
                </mxCell>
                <mxCell id="9" value="&lt;p style=&quot;margin: 0px ; margin-top: 4px ; text-align: center&quot;&gt;&lt;br&gt;&lt;b&gt;rtnl_link_ops&lt;/b&gt;&lt;/p&gt;" style="verticalAlign=top;align=left;overflow=fill;fontSize=12;fontFamily=Helvetica;html=1;" vertex="1" parent="1">
                    <mxGeometry x="925" y="430" width="140" height="60" as="geometry"/>
                </mxCell>
                <mxCell id="11" style="edgeStyle=orthogonalEdgeStyle;rounded=0;orthogonalLoop=1;jettySize=auto;html=1;exitX=0.5;exitY=1;exitDx=0;exitDy=0;" edge="1" parent="1" source="9" target="9">
                    <mxGeometry relative="1" as="geometry"/>
                </mxCell>
                <mxCell id="12" value="" style="endArrow=block;dashed=1;endFill=0;endSize=12;html=1;entryX=0.5;entryY=1;entryDx=0;entryDy=0;" edge="1" parent="1" source="7" target="9">
                    <mxGeometry width="160" relative="1" as="geometry">
                        <mxPoint x="990" y="240" as="sourcePoint"/>
                        <mxPoint x="990" y="190" as="targetPoint"/>
                    </mxGeometry>
                </mxCell>
            </root>
        </mxGraphModel>
    </diagram>
</mxfile>